<svg id="Шар_1" data-name="Шар 1" xmlns="http://www.w3.org/2000/svg" viewBox="0 0 91 25"><defs><style>.cls-1{fill:#533738;}</style></defs><title>scandy-logo</title><path class="cls-1" d="M34.14,18.2c2.86,0,4.18-1.41,4.18-3.06,0-4.08-6.9-2.22-6.9-5.3,0-1.12.91-2,3-2a5.77,5.77,0,0,1,3.07.93l.4-.94a6.32,6.32,0,0,0-3.47-1c-2.85,0-4.13,1.42-4.13,3.07,0,4.14,6.9,2.26,6.9,5.33,0,1.1-.91,2-3,2a5.5,5.5,0,0,1-3.7-1.36l-.46.91A6.07,6.07,0,0,0,34.14,18.2Zm11.62,0a5.45,5.45,0,0,0,4.11-1.65l-.75-.75a4.39,4.39,0,0,1-3.31,1.34,4.58,4.58,0,0,1-4.74-4.64,4.58,4.58,0,0,1,4.74-4.64,4.44,4.44,0,0,1,3.31,1.33l.75-.75a5.42,5.42,0,0,0-4.1-1.63,5.62,5.62,0,0,0-5.87,5.7A5.62,5.62,0,0,0,45.76,18.2Zm14.72-.1h1.25L56.61,6.9H55.44L50.32,18.1h1.23l1.34-3h6.24Zm-7.15-4,2.69-6,2.69,6ZM71.77,6.9V16L64.56,6.9h-1V18.1h1.18V9L72,18.1h1V6.9ZM76.6,18.1h4.56c3.58,0,6-2.3,6-5.6s-2.42-5.6-6-5.6H76.6Zm1.18-1V7.92h3.31c3,0,4.9,1.89,4.9,4.58s-1.92,4.58-4.9,4.58Zm12,1H91V6.9H89.82Z" transform="translate(0)"/><path class="cls-1" d="M13.06,10.33v2.16h4.59c-.4.57-.73,1.07-1.08,1.55-1.11,1.52-2.24,3-3.34,4.57a.47.47,0,0,0,.06.41c1.31,1.84,2.64,3.67,4,5.51.1.14.19.29.32.48H7.39c.38-.54.72-1,1.08-1.54,1.09-1.5,2.18-3,3.26-4.49a.5.5,0,0,0,0-.45c-.87-1.22-1.75-2.42-2.63-3.63-.55-.76-1.09-1.53-1.69-2.36H12V10.48l-1.63-.15c-2-.15-4-.26-5.94-.45C3.09,9.76,1.78,9.55.49,9.33A.71.71,0,0,1,0,8.83c0-1.52.05-3,.06-4.55C.09,3.56,0,2.85,0,2.13c0-1,0-1,1-1.17C2.64.75,4.29.51,6,.32,6.59.24,7.24.23,7.89.2,9.79.12,11.7,0,13.61,0s3.78.25,5.67.41c1.33.12,2.66.28,4,.44a13.45,13.45,0,0,1,1.47.24.5.5,0,0,1,.25.39c0,2.45,0,4.9,0,7.35a.64.64,0,0,1-.36.49c-1.28.22-2.56.41-3.85.56s-2.88.29-4.31.44H13.06Zm-.61-1h0c1.23,0,2.47.06,3.69,0,1.5-.08,3-.26,4.48-.42,1-.11,2-.3,3-.42C24,8.45,24,8.31,24,8q0-2.8,0-5.61c0-.29-.05-.46-.4-.49-1.11-.12-2.22-.3-3.33-.42-1.51-.16-3-.35-4.53-.42s-3.05,0-4.58,0-2.84.1-4.25.22c-1.74.14-3.48.34-5.21.56-.27,0-.74-.07-.74.49C1,4.25,1,6.15,1,8.06a.55.55,0,0,0,.34.4c1.09.17,2.18.34,3.28.45q2.75.26,5.51.43C10.9,9.39,11.68,9.35,12.46,9.35Zm-.57,7.72L12,17c0-1.09,0-2.17,0-3.26,0-.09-.23-.25-.36-.26-.43,0-.87,0-1.3,0H9.27Zm1.18-3.52v3.6l2.61-3.6ZM9.29,24.05c.94,0,1.69,0,2.45,0,.1,0,.29-.18.29-.27,0-.88,0-1.76-.07-2.64,0-.21,0-.43,0-.78ZM15.68,24l-2.6-3.58V24Z" transform="translate(0)"/></svg>